# xmcd
#
# Track frame offsets:
#	150
#	11287
#	19612
#	27640
#	36100
#	46950
#	58902
#	68755
#	79485
#	92132
#	110075
#	124677
#	140940
#	152667
#	165445
#	178325
#	190717
#	199887
#	210482
#	223152
#	235397
#	244437
#	257952
#	269487
#
# Disc length: 3815
#
# Revision: 2
# Processed by: cddbd v1.5.1PL0 Copyright (c) Steve Scherf et al.
# Submitted via: EasyCDDAExtractor 5.0.6
# Normalized: r1:DSETVAR1
#
DISCID=6e0ee518
DTITLE=Various Artist - The Country Greats Disc 1
DYEAR=1900
DGENRE=Country
TTITLE0=Roger Miller - King of the Road
TTITLE1=Roger Miller - Dang Me
TTITLE2=Roger Miller - You don't want my love
TTITLE3=Roger Miller - England Swings
TTITLE4=Roger Miller - Husbands And Wives
TTITLE5=Roger Miller - Little Green Apples
TTITLE6=Anne Murray - Snowbird
TTITLE7=Anne Murray - Daydream Believer
TTITLE8=Anne Murray - I just fall in love again
TTITLE9=Anne Murray - You won't see me
TTITLE10=Anne Murray - Could I have this dance
TTITLE11=Anne Murray - You Needed Me
TTITLE12=Jim Reeves - Welcome to my world
TTITLE13=Jim Reeves - Distant Drums
TTITLE14=Jim Reeves - Four Walls
TTITLE15=Jim Reeves - I love you because
TTITLE16=Jim Reeves - I won't forget you
TTITLE17=Jim Reeves - He'll have to go
TTITLE18=Patsy Cline - I Fall to pieces
TTITLE19=Patsy Cline - Crazy
TTITLE20=Patsy Cline - Walking After Midnight
TTITLE21=Patsy Cline - She's got you
TTITLE22=Patsy Cline - Sweet Dreams
TTITLE23=Patsy Cline - Faded Love
EXTD=
EXTT0=
EXTT1=
EXTT2=
EXTT3=
EXTT4=
EXTT5=
EXTT6=
EXTT7=
EXTT8=
EXTT9=
EXTT10=
EXTT11=
EXTT12=
EXTT13=
EXTT14=
EXTT15=
EXTT16=
EXTT17=
EXTT18=
EXTT19=
EXTT20=
EXTT21=
EXTT22=
EXTT23=
PLAYORDER=
